####
#
# OBJ File Generated by Meshlab
#
####
# Object LAnkleRoll.obj
#
# Vertices: 193
# Faces: 149
#
####
vn -2.503050 -0.719890 1.613303
v -0.607251 -0.004893 -0.310703
vn -1.767536 -0.029297 -1.657312
v -0.595004 -0.004175 -0.322678
vn -2.894788 0.713220 1.730260
v -0.594170 0.097354 -0.309251
vn -2.486846 0.520227 -0.614908
v -0.577005 0.092482 -0.313697
vn -0.195753 0.254115 0.118673
v -0.542372 0.314778 -0.415630
vn -1.936721 1.471795 0.593782
v -0.535624 0.291904 -0.417468
vn -2.155393 -1.391108 -0.025459
v -0.520370 -0.137587 -0.415668
vn -3.087608 1.950239 2.427071
v -0.493965 0.282896 -0.248394
vn -0.120866 -0.115149 -0.158648
v -0.493234 -0.189602 -0.437444
vn -0.426251 0.001012 -2.514348
v -0.485052 0.374899 -0.446642
vn -1.526655 2.017605 1.165987
v -0.478329 0.381075 -0.446497
vn -2.041466 0.197865 1.632554
v -0.470807 0.144168 -0.145748
vn 0.000000 0.000000 1.570797
v -0.466654 -0.205741 -0.343876
vn 0.000000 0.000000 1.570796
v -0.466654 0.235219 -0.343876
vn 0.071496 0.055630 -2.545830
v -0.416436 -0.301588 -0.459498
vn -0.138114 -0.001652 0.010829
v -0.415308 -0.001295 -0.344398
vn -1.212571 -1.454529 2.256088
v -0.414456 -0.142722 -0.146540
vn 0.152924 1.526342 0.047233
v -0.414111 0.138559 -0.148044
vn 1.565600 0.004644 -0.064729
v -0.414101 0.131091 -0.154711
vn -0.036995 -0.729405 -0.006913
v -0.413425 -0.123922 -0.146836
vn 1.587714 0.013089 -0.071825
v -0.413328 -0.128996 -0.154695
vn -1.483099 -3.291126 2.509566
v -0.405341 -0.295916 -0.270099
vn 0.112595 1.576777 0.126144
v -0.394873 0.075425 -0.343266
vn -1.514730 0.004849 -0.009654
v -0.394870 0.073923 -0.344438
vn -1.583151 -0.004701 -0.012477
v -0.394704 0.017990 -0.344434
vn -1.269150 -0.003766 0.002161
v -0.394590 -0.020616 -0.344432
vn -3.286587 0.255059 0.070005
v -0.394587 0.065412 -0.192563
vn -1.514737 -0.004495 0.002579
v -0.394424 -0.076391 -0.344428
vn 0.004796 -1.568827 0.082156
v -0.394424 -0.076391 -0.344428
vn -0.357687 -0.001061 0.000609
v -0.394191 -0.067859 -0.192555
vn -0.994816 -2.292881 0.564125
v -0.388770 -0.341450 -0.417734
vn -1.009014 -1.640765 -1.432480
v -0.388011 -0.328898 -0.416506
vn -2.433804 -0.009282 0.064946
v -0.377290 -0.001169 -0.135977
vn -0.645596 -2.888791 -1.204737
v -0.353023 -0.324106 -0.446640
vn 0.174208 0.034072 -2.602628
v -0.346649 -0.341193 -0.446650
vn 0.000089 0.043619 0.000028
v -0.340097 -0.125495 -0.154844
vn 1.135247 -0.242537 0.788140
v -0.339526 -0.125986 -0.159750
vn -0.106148 -2.092830 -0.019836
v -0.334419 -0.127991 -0.140326
vn 0.027022 1.553750 0.121696
v -0.316092 0.074157 -0.344572
vn 0.032374 -1.569345 0.090262
v -0.315645 -0.076157 -0.344562
vn -0.338602 2.112182 2.865303
v -0.297833 0.450423 -0.224671
vn -0.242187 2.060131 0.806530
v -0.296125 0.525960 -0.417104
vn -0.364688 2.520725 0.144059
v -0.289331 0.524261 -0.446804
vn -0.002413 -0.000183 -1.902805
v -0.286356 0.524192 -0.446810
vn -0.007726 2.606942 0.015651
v -0.283189 0.523797 -0.416815
vn 0.420226 2.407749 0.394739
v -0.282480 0.113423 -0.148241
vn 1.322594 -0.413383 1.097100
v -0.282107 0.112105 -0.169189
vn 0.733468 -0.696361 2.963838
v -0.237166 -0.131596 -0.280464
vn 0.000655 4.025691 0.001542
v -0.218161 -0.125636 -0.322310
vn -0.005398 2.257973 -0.000467
v -0.215220 -0.125628 -0.343083
vn 1.142874 -0.321932 0.899778
v -0.212207 -0.125619 -0.343030
vn 0.273613 -0.180283 1.491718
v -0.173487 -0.002048 -0.290578
vn 0.001488 -0.165622 -0.002525
v -0.168485 -0.001097 -0.288852
vn 1.110458 -0.455983 1.070056
v -0.168316 0.112436 -0.287136
vn 0.626348 -0.508065 4.158255
v -0.168006 0.113499 -0.270570
vn -0.006149 -0.000238 -3.614831
v -0.114486 0.408013 -0.447094
vn 0.031036 -2.554922 -0.038962
v -0.065702 0.000632 -0.341736
vn 0.039073 -3.406315 -0.051942
v -0.065667 0.000328 -0.321735
vn -0.009825 2.862157 -0.013479
v -0.035217 -0.125097 -0.361407
vn 0.808406 2.670994 -0.548708
v -0.018610 0.365733 -0.447255
vn -0.167750 -2.775155 3.935448
v -0.015188 -0.295755 -0.300907
vn 0.110167 2.473032 4.181729
v -0.006381 0.337935 -0.268783
vn 0.292724 3.018437 0.613211
v -0.001484 0.363436 -0.417256
vn 0.057602 2.972169 -0.030043
v 0.004477 0.365209 -0.417294
vn 0.315495 -0.812582 4.474176
v 0.062268 0.151126 -0.315308
vn 0.002254 -0.155138 -0.002366
v 0.062800 0.002281 -0.327406
vn 0.179029 -0.021512 1.573445
v 0.062817 0.002281 -0.317406
vn -0.000811 0.235260 -0.000795
v 0.085335 -0.124581 -0.339728
vn -2.238662 2.159817 3.045461
v 0.087763 -0.152478 -0.326840
vn -0.172384 0.477504 1.292779
v 0.090301 -0.124662 -0.350036
vn -0.231190 -3.105674 0.540226
v 0.090402 -0.324454 -0.417820
vn -0.005958 -0.000231 -3.502314
v 0.109189 0.380777 -0.447473
vn -0.005587 -0.000217 -3.283998
v 0.165600 -0.333659 -0.447522
vn -1.175611 1.279203 2.647027
v 0.168911 -0.156407 -0.286485
vn -0.647638 -0.007280 1.438506
v 0.170640 0.165997 -0.305776
vn -0.657659 -0.020929 1.418866
v 0.171619 -0.166494 -0.310226
vn -0.805097 -1.270740 2.573052
v 0.172409 0.154532 -0.303417
vn -1.045313 2.056950 3.256068
v 0.331114 0.399141 -0.142483
vn -0.110293 1.562575 0.120070
v 0.344116 0.076117 -0.345695
vn -1.506397 -0.004472 -0.000000
v 0.344302 0.076124 -0.236637
vn -0.121300 -1.551242 0.100899
v 0.344563 -0.074197 -0.345685
vn -1.506519 -0.004472 0.000000
v 0.344748 -0.074190 -0.236628
vn -0.632500 0.003071 1.436395
v 0.411656 0.167067 -0.199650
vn -0.649280 -0.010754 1.431457
v 0.412233 -0.165478 -0.198685
vn -1.728821 0.479503 4.415327
v 0.413594 -0.165101 -0.175877
vn -1.320843 -1.041665 4.377286
v 0.413823 0.164378 -0.197706
vn -0.088763 1.257542 0.096631
v 0.422880 0.081649 -0.345340
vn 1.514428 0.022831 -0.026590
v 0.422895 0.076351 -0.345829
vn 1.582826 0.004696 -0.032448
v 0.423061 0.020417 -0.345825
vn 1.269153 0.003766 -0.002160
v 0.423176 -0.018189 -0.345823
vn 2.673167 0.276695 0.010515
v 0.423179 0.067839 -0.193954
vn 1.514734 0.004495 -0.002578
v 0.423341 -0.073963 -0.345820
vn -0.098970 -1.265674 0.082325
v 0.423363 -0.080275 -0.344391
vn 0.357687 0.001061 -0.000609
v 0.423574 -0.065431 -0.193946
vn 0.136931 -0.014670 0.009870
v 0.443777 0.001255 -0.345859
vn 0.000000 0.000000 1.570796
v 0.482786 -0.205741 -0.343876
vn 0.000000 0.000000 1.570797
v 0.482786 0.235219 -0.343876
vn -0.349493 -2.435667 3.347726
v 0.503923 -0.332643 -0.130815
vn 0.869531 -0.453606 -1.281241
v 0.545948 0.044242 -0.145375
vn 0.063575 2.916041 0.469303
v 0.548096 0.485951 -0.418607
vn -0.004349 -0.000169 -2.556457
v 0.552937 0.489162 -0.448235
vn -2.103259 1.497208 1.225958
v 0.558048 0.030465 -0.118364
vn 1.968260 0.811949 0.356629
v 0.560343 0.000548 -0.125345
vn -0.371897 2.545377 -1.043774
v 0.561797 0.489053 -0.418250
vn -0.015336 -0.348407 2.068885
v 0.570624 -0.079925 -0.151992
vn -1.860710 0.879119 1.444146
v 0.589636 0.091712 -0.149209
vn -0.004861 -0.000188 -2.855917
v 0.592955 -0.388533 -0.448245
vn 1.581399 0.010370 3.588919
v 0.606480 -0.121693 -0.176615
vn -1.138613 2.043446 2.134812
v 0.608799 0.106737 -0.133664
vn -0.490173 -0.288013 3.847580
v 0.627197 0.134423 -0.141825
vn 0.574645 1.426996 1.723432
v 0.664794 0.491728 -0.448425
vn 0.938871 1.637112 4.852810
v 0.679892 0.327865 -0.118455
vn 0.394595 -0.697998 2.117845
v 0.686687 -0.164060 -0.182104
vn 1.049461 1.647719 0.400159
v 0.687469 -0.159163 -0.150685
vn 1.587389 4.962968 1.999718
v 0.704065 0.437538 -0.245531
vn -0.631179 1.579410 -0.989001
v 0.705084 -0.164993 -0.173653
vn 0.452730 -1.314361 0.973321
v 0.724722 0.174474 -0.157400
vn 0.706377 0.615782 1.803302
v 0.748675 0.163975 -0.199109
vn 1.117088 -0.673329 3.667740
v 0.749150 0.159479 -0.168735
vn 1.820626 -0.387510 5.437104
v 0.749325 -0.024859 -0.147897
vn -1.481699 -2.050740 -0.238644
v 0.750925 0.158523 -0.183018
vn -0.084992 -1.536426 0.264133
v 0.755804 -0.396166 -0.419268
vn 0.394213 -3.667374 1.646863
v 0.757966 -0.364721 -0.280104
vn 0.761913 -1.348737 -0.113039
v 0.762592 -0.357879 -0.414516
vn 0.650896 -1.413574 -0.108594
v 0.762592 -0.357878 -0.414516
vn 0.000699 -0.003026 -0.051089
v 0.765265 -0.362145 -0.415662
vn 0.890687 -1.755795 -0.031501
v 0.767941 -0.365578 -0.282231
vn -2.469707 -1.253317 0.092332
v 0.768480 -0.367739 -0.367886
vn 0.979228 -1.712714 -0.126142
v 0.769631 -0.365121 -0.280667
vn 0.514414 -1.464250 0.052165
v 0.772920 -0.380094 -0.416818
vn 0.835777 -1.806440 0.047294
v 0.775618 -0.375228 -0.278610
vn 0.049928 0.781967 4.025715
v 0.778281 -0.152491 -0.197059
vn -0.004457 -0.000172 -2.616960
v 0.826708 0.390598 -0.448694
vn 1.009171 -0.518902 1.858630
v 0.828493 -0.120935 -0.217705
vn -0.004420 -0.000170 -2.593799
v 0.834722 -0.350020 -0.448659
vn 0.001525 0.033543 0.118623
v 0.848704 -0.307940 -0.225024
vn 1.173913 -2.443576 -0.731933
v 0.854387 -0.378417 -0.448691
vn -2.468144 0.676548 1.371098
v 0.856134 0.328515 -0.269052
vn 1.570594 0.673478 3.470107
v 0.857225 0.089431 -0.196382
vn 2.045104 3.133440 1.459067
v 0.857264 0.340781 -0.252470
vn 1.699274 0.272255 -0.509322
v 0.857431 0.343543 -0.255819
vn 2.465540 0.608099 -2.159634
v 0.859868 0.322405 -0.258989
vn 0.133000 0.014707 0.004156
v 0.861517 0.352036 -0.416613
vn 1.063209 1.668176 0.578567
v 0.862533 0.323033 -0.256439
vn 1.634799 1.352841 -0.103494
v 0.862534 0.323034 -0.256442
vn 1.202861 0.861315 0.096611
v 0.862598 0.340670 -0.414482
vn -1.600462 0.252761 1.144117
v 0.863584 0.339485 -0.261053
vn -1.139408 0.532843 -1.862654
v 0.864383 -0.070553 -0.223955
vn 0.706586 1.418820 0.108130
v 0.865604 0.370306 -0.418937
vn -0.076536 0.051728 0.000344
v 0.867970 0.347004 -0.415801
vn 1.366263 -1.560864 -0.616528
v 0.869318 -0.380223 -0.418716
vn 1.266898 1.664595 0.238551
v 0.870879 0.334930 -0.253994
vn 1.147571 0.936323 0.016739
v 0.874049 0.355871 -0.416952
vn -1.675494 -0.628889 -1.402270
v 0.875427 0.032066 -0.231912
vn 1.017460 0.197012 1.733555
v 0.877263 0.047639 -0.231226
vn -3.169652 0.293359 -0.127859
v 0.877420 -0.012511 -0.215326
vn 1.242326 0.635585 -0.129456
v 0.887413 0.362080 -0.414744
vn 1.306125 0.462912 3.836458
v 0.887683 -0.027251 -0.200509
vn 0.827429 -1.644246 2.051096
v 0.896927 -0.299220 -0.209609
vn 2.210791 -1.225861 3.728362
v 0.897949 -0.254401 -0.174092
vn 1.619716 -1.574124 0.174951
v 0.905349 -0.286799 -0.216942
vn 1.551327 -1.623777 0.087247
v 0.908197 -0.288752 -0.216140
vn 0.036122 -0.156293 -2.638636
v 0.910812 -0.296172 -0.417577
vn 1.689123 1.386489 -0.211334
v 0.917917 0.274835 -0.219247
vn 1.843991 1.239478 0.265423
v 0.917917 0.274835 -0.219247
vn 1.635589 -1.492636 0.054521
v 0.918239 -0.295659 -0.212315
vn 1.244669 -0.155104 2.921239
v 0.923207 0.259165 -0.193501
vn 1.795199 1.297553 0.096264
v 0.928433 0.285617 -0.215546
vn 2.189173 -1.891510 -0.307221
v 0.929679 -0.297526 -0.417238
vn 2.194759 -1.835245 0.010528
v 0.934670 -0.278620 -0.414814
vn 0.034354 0.016055 -0.080644
v 0.954214 0.222164 -0.238754
vn 2.590311 1.378251 -0.040346
v 0.954301 0.242581 -0.417102
vn -0.004411 -0.000170 -2.585893
v 0.957974 -0.244988 -0.448877
vn -0.050525 -0.025491 0.082026
v 0.958810 0.218938 -0.239860
vn 0.717133 1.145493 3.353782
v 0.962348 -0.215805 -0.252538
vn 0.182940 0.699782 2.316290
v 0.967550 -0.233594 -0.247574
vn 2.365232 -1.434367 -0.138621
v 0.969236 -0.241114 -0.414875
vn 0.899730 0.684253 -1.672218
v 0.971273 0.274117 -0.418932
vn -0.004418 -0.000170 -2.588655
v 0.975094 0.214639 -0.448936
vn 0.802426 0.054284 0.087175
v 0.991887 0.157564 -0.282097
vn 2.271723 -0.513036 0.896652
v 0.999128 -0.067207 -0.323329
vn 3.394902 0.588709 0.747427
v 1.003583 0.087854 -0.309081
vn 2.669933 0.494081 -1.654305
v 1.003622 0.087672 -0.309147
vn 4.036973 0.648179 -0.065976
v 1.008216 0.082855 -0.385881
vn 3.358361 -0.758401 -0.455612
v 1.009630 -0.071935 -0.319271
vn 3.001962 -0.031884 -1.304255
v 1.010418 -0.071714 -0.319318
vn 3.425790 -0.939350 -0.143782
v 1.012119 -0.088138 -0.315331
vn 2.877081 -0.489395 -0.028958
v 1.012195 -0.062178 -0.413156
vn -0.004566 -0.000177 -2.684587
v 1.016310 -0.062461 -0.448988
vn 1.181464 -0.039178 1.816985
v 1.017597 0.120485 -0.449001
vn 1.830938 0.676034 -0.118513
v 1.019159 0.085337 -0.312050
vn 2.766782 0.708749 0.223954
v 1.021540 0.118758 -0.414986
vn 1.156481 -0.186655 1.865765
v 1.031355 0.146058 -0.286184
# 193 vertices, 0 vertices normals

f 94//94 92//92 90//90
f 118//118 109//109 120//120
f 155//155 118//118 120//120
f 105//105 113//113 120//120
f 118//118 106//106 109//109
f 135//135 133//133 179//179
f 107//107 101//101 133//133
f 107//107 73//73 101//101
f 35//35 56//56 72//72
f 35//35 44//44 56//56
f 35//35 15//15 10//10
f 15//15 2//2 10//10
f 5//5 45//45 43//43
f 45//45 64//64 60//60
f 151//151 32//32 34//34
f 64//64 104//104 111//111
f 104//104 178//178 111//111
f 178//178 151//151 190//190
f 122//122 98//98 71//71
f 78//78 115//115 100//100
f 115//115 140//140 149//149
f 193//193 160//160 181//181
f 115//115 78//78 112//112
f 112//112 78//78 110//110
f 63//63 62//62 78//78
f 41//41 62//62 63//63
f 6//6 3//3 8//8
f 6//6 8//8 41//41
f 98//98 61//61 71//71
f 31//31 71//71 61//61
f 1//1 17//17 12//12
f 141//141 142//142 143//143
f 177//177 186//186 162//162
f 165//165 183//183 157//157
f 144//144 165//165 157//157
f 157//157 183//183 186//186
f 98//98 102//102 85//85
f 110//110 86//86 85//85
f 85//85 74//74 61//61
f 62//62 77//77 86//86
f 156//156 117//117 154//154
f 156//156 154//154 148//148
f 114//114 116//116 99//99
f 117//117 103//103 99//99
f 156//156 148//148 116//116
f 3//3 12//12 8//8
f 62//62 41//41 8//8
f 74//74 69//69 61//61
f 62//62 65//65 77//77
f 55//55 65//65 62//62
f 65//65 52//52 67//67
f 48//48 22//22 61//61
f 48//48 17//17 22//22
f 48//48 38//38 20//20
f 69//69 70//70 61//61
f 58//58 57//57 66//66
f 68//68 59//59 50//50
f 49//49 50//50 36//36
f 193//193 139//139 158//158
f 110//110 119//119 167//167
f 119//119 139//139 193//193
f 167//167 119//119 193//193
f 132//132 108//108 98//98
f 158//158 132//132 160//160
f 110//110 78//78 86//86
f 97//97 14//14 13//13
f 47//47 37//37 51//51
f 84//84 83//83 75//75
f 185//185 161//161 170//170
f 145//145 164//164 192//192
f 161//161 127//127 170//170
f 192//192 164//164 182//182
f 163//163 169//169 126//126
f 187//187 184//184 180//180
f 130//130 169//169 166//166
f 188//188 187//187 166//166
f 26//26 28//28 30//30
f 134//134 155//155 120//120
f 113//113 134//134 120//120
f 109//109 105//105 120//120
f 109//109 106//106 105//105
f 179//179 189//189 173//173
f 173//173 135//135 179//179
f 135//135 107//107 133//133
f 101//101 73//73 72//72
f 73//73 35//35 72//72
f 44//44 35//35 10//10
f 34//34 32//32 9//9
f 11//11 5//5 43//43
f 43//43 45//45 60//60
f 34//34 137//137 151//151
f 60//60 64//64 111//111
f 190//190 111//111 178//178
f 190//190 151//151 137//137
f 31//31 1//1 7//7
f 42//42 41//41 63//63
f 100//100 63//63 78//78
f 100//100 115//115 149//149
f 112//112 167//167 115//115
f 140//140 115//115 167//167
f 10//10 2//2 4//4
f 42//42 6//6 41//41
f 31//31 22//22 1//1
f 122//122 123//123 98//98
f 181//181 160//160 159//159
f 98//98 123//123 160//160
f 22//22 31//31 61//61
f 159//159 160//160 123//123
f 3//3 1//1 12//12
f 1//1 22//22 17//17
f 141//141 171//171 142//142
f 177//177 162//162 129//129
f 177//177 129//129 124//124
f 177//177 157//157 186//186
f 98//98 108//108 102//102
f 102//102 110//110 85//85
f 98//98 85//85 61//61
f 78//78 62//62 86//86
f 121//121 117//117 99//99
f 154//154 117//117 121//121
f 103//103 114//114 99//99
f 114//114 156//156 116//116
f 55//55 62//62 8//8
f 65//65 55//55 52//52
f 70//70 48//48 61//61
f 49//49 68//68 50//50
f 57//57 58//58 53//53
f 160//160 193//193 158//158
f 112//112 110//110 167//167
f 160//160 132//132 98//98
f 96//96 97//97 13//13
f 54//54 47//47 51//51
f 76//76 84//84 75//75
f 192//192 182//182 185//185
f 192//192 185//185 170//170
f 146//146 145//145 192//192
f 170//170 127//127 125//125
f 138//138 147//147 150//150
f 138//138 174//174 147//147
f 136//136 176//176 175//175
f 175//175 176//176 187//187
f 168//168 153//153 152//152
f 131//131 128//128 130//130
f 131//131 130//130 166//166
f 168//168 172//172 153//153
f 191//191 172//172 168//168
f 172//172 191//191 184//184
f 188//188 184//184 187//187
f 169//169 188//188 166//166
# 149 faces, 0 coords texture

# End of File
