####
#
# OBJ File Generated by Meshlab
#
####
# Object RKneePitch.obj
#
# Vertices: 341
# Faces: 80
#
####
vn -5.024704 0.922149 0.781710
v -0.382792 -0.306111 -0.840041
vn -2.063809 1.177553 0.702931
v -0.378795 0.392594 -0.704978
vn -1.533799 -1.427995 0.657308
v -0.370448 -0.453936 -0.882634
vn -0.123768 -1.076973 -0.237815
v -0.364519 0.180276 -0.942825
vn -3.749225 -0.258418 -0.101754
v -0.350590 0.185826 -0.923070
vn 0.188539 1.894641 -0.060827
v -0.333264 -0.138130 -0.960170
vn -1.254188 0.466730 0.371153
v -0.332357 -0.138556 -0.955944
vn -0.150369 -1.934575 -0.452669
v -0.329910 0.177698 -0.949162
vn -1.133094 0.134070 -0.353540
v -0.327451 0.152198 -1.009983
vn -2.231679 -0.627338 1.123705
v -0.307511 0.144564 -0.862767
vn -0.000893 0.999794 0.020261
v -0.310520 -0.180360 -0.948780
vn -0.000838 -0.999801 0.019915
v -0.310515 0.176021 -0.948765
vn 0.123911 1.225481 -0.040287
v -0.306694 -0.141562 -0.982846
vn -1.463455 1.830508 -0.475333
v -0.304039 0.379503 -0.998819
vn -0.697023 -0.841144 -0.004292
v -0.300182 -0.462667 -0.863493
vn 0.392669 -3.173132 -0.762566
v -0.293990 0.151170 -0.847721
vn 0.238099 -2.927533 -0.230130
v -0.249022 0.153370 -0.829532
vn -1.298319 -1.793399 1.294158
v -0.245747 -0.507982 -0.822952
vn 0.000000 0.000000 0.000000
v -0.212957 0.127729 0.045258
vn 0.000000 0.000000 0.000000
v -0.215331 -0.134631 0.010091
vn 0.000000 0.000000 0.000000
v -0.214528 0.135906 0.010107
vn -2.050905 -1.051892 1.321548
v -0.220948 -0.371828 -0.485236
vn 0.000000 0.000000 0.000000
v -0.195061 -0.126609 0.102450
vn 0.000000 0.000000 0.000000
v -0.204388 0.184193 -0.865939
vn -0.012747 2.319459 -0.001454
v -0.204465 -0.144394 -0.922541
vn 0.001386 -1.206502 -0.005021
v -0.203149 -0.183254 -0.916662
vn 0.000000 0.000000 0.000000
v -0.200433 0.145597 -0.970312
vn 0.000000 0.000000 0.000000
v -0.202152 0.188095 -0.775707
vn -0.062592 -0.068617 0.032891
v -0.197590 -0.183229 -0.755961
vn 0.000000 0.000000 0.000000
v -0.196849 0.145093 -0.819500
vn -0.876418 -0.172383 -0.088905
v -0.189512 -0.381232 -0.581090
vn -0.481153 -0.376049 0.348697
v -0.186595 -0.410989 -0.552148
vn 0.000000 0.000000 0.000000
v -0.183943 0.143512 -0.718490
vn -0.477288 1.577967 -1.529006
v -0.189375 -0.141810 -0.588831
vn -4.379419 -0.353678 1.784130
v -0.182306 -0.142384 -0.569558
vn 0.000000 0.000000 0.000000
v -0.182183 0.145535 -0.953121
vn -0.089713 -1.818363 -1.689878
v -0.183096 0.153102 -0.590182
vn -4.348343 -0.323641 1.677716
v -0.179554 0.152982 -0.580649
vn -0.303616 0.948774 0.087435
v -0.172555 -0.141091 -1.126277
vn -0.102648 -3.152416 -1.387429
v -0.174319 -0.471863 -0.947072
vn -0.017120 -0.997779 0.064371
v -0.169893 0.155029 -1.185201
vn 0.000000 0.000000 0.000000
v -0.167136 0.183526 -1.112552
vn -0.025975 2.757048 0.050291
v -0.168199 -0.144951 -0.689057
vn 0.017437 -2.758731 -0.051222
v -0.167297 -0.184175 -0.685438
vn 0.000000 0.000000 0.000000
v -0.159519 -0.134302 0.153261
vn 0.000000 0.000000 0.000000
v -0.158720 0.135229 0.153276
vn 0.000000 0.000000 0.000000
v -0.156316 -0.134220 -0.250385
vn 0.000000 0.000000 0.000000
v -0.154463 0.134260 -0.248672
vn -0.010524 -1.140808 0.051982
v -0.158878 0.144352 -0.673389
vn -0.002154 -0.999992 -0.003405
v -0.156903 -0.182546 -1.139089
vn 0.007573 0.999950 0.006529
v -0.157087 -0.143320 -1.141988
vn 0.000000 0.000000 0.000000
v -0.157166 0.144867 -1.142761
vn -0.419111 1.573611 -1.456995
v -0.160059 -0.143804 -0.600040
vn -0.013391 -0.998010 0.061623
v -0.154903 0.155768 -1.169975
vn 0.000000 0.000000 0.000000
v -0.152734 -0.144736 -0.929869
vn -0.079638 -1.258556 -1.489735
v -0.152215 0.155408 -0.593781
vn 0.000000 0.000000 0.000000
v -0.147427 0.185418 -0.641564
vn -0.008584 0.999899 -0.011343
v -0.145187 -0.180895 -1.175915
vn -0.008385 -0.999904 -0.011081
v -0.145186 0.176544 -1.175906
vn 0.000000 0.000000 0.000000
v -0.139830 0.143069 -1.170073
vn -0.477630 -0.227060 -0.848713
v -0.128961 -0.139912 -1.229053
vn 0.067997 0.997491 0.019693
v -0.125140 -0.140318 -1.232090
vn 0.067722 0.997502 0.020092
v -0.113767 -0.141442 -1.214621
vn -0.065589 0.997840 0.003548
v -0.114216 0.145763 -0.989055
vn -0.001367 0.942706 -0.000556
v -0.113254 -0.144330 -1.038141
vn 0.000000 0.000000 0.000000
v -0.113432 0.146031 -1.040039
vn -0.505993 0.114285 -0.854933
v -0.111772 0.229931 -1.235352
vn 0.000000 0.000000 0.000000
v -0.105544 -0.141680 0.024311
vn 0.000000 0.000000 0.000000
v -0.109013 -0.142172 0.025113
vn 0.000000 0.000000 0.000000
v -0.108167 0.142814 0.025131
vn 0.000000 0.000000 0.000000
v -0.104700 0.142301 0.024329
vn 0.000000 0.000000 0.000000
v -0.103719 -0.142576 -1.170149
vn -5.200940 -0.892089 3.375244
v -0.104626 0.340980 -0.350183
vn 0.000000 0.000000 0.000000
v -0.099551 0.145805 -0.974649
vn -4.888173 1.935246 1.790139
v -0.099132 -0.302494 -0.406488
vn -0.355739 2.132731 -0.936974
v -0.094736 -0.459588 -0.770132
vn -2.404119 -0.251239 2.561152
v -0.088912 0.141625 -0.355911
vn -3.357319 0.024625 0.572067
v -0.088139 -0.137475 -0.349076
vn 0.000000 0.000000 0.000000
v -0.088446 -0.141698 -0.054583
vn 0.000000 0.000000 0.000000
v -0.091908 -0.143060 -0.056727
vn -0.014702 3.876744 -0.035418
v -0.089553 -0.144246 -0.954041
vn 0.000000 0.000000 0.000000
v -0.091056 0.143610 -0.056710
vn 0.000000 0.000000 0.000000
v -0.087602 0.142228 -0.054566
vn -0.011692 0.999599 0.025804
v -0.096154 -0.197279 -0.470238
vn -0.011484 -0.999613 0.025323
v -0.096205 0.192638 -0.470487
vn -2.980377 -0.226998 1.493064
v -0.088312 -0.345212 -0.286226
vn 0.000000 0.000000 0.000000
v -0.087119 0.143193 -0.008822
vn 0.011655 -1.050429 -0.976628
v -0.082260 -0.385363 -1.039010
vn 0.000000 0.000000 0.000000
v -0.078974 -0.189864 0.012767
vn 0.000000 0.000000 0.000000
v -0.073154 -0.127486 -0.392530
vn -0.065589 0.997840 0.003548
v -0.077185 0.148635 -1.112228
vn 0.000000 0.000000 0.000000
v -0.075466 -0.194068 0.017516
vn 0.000000 0.000000 0.000000
v -0.075664 -0.143706 0.017600
vn 0.000000 0.000000 0.000000
v -0.074809 0.144151 0.017618
vn 0.000000 0.000000 0.000000
v -0.074313 0.194511 0.017540
vn 0.000000 0.000000 0.000000
v -0.063240 -0.193936 -0.038680
vn 0.000000 0.000000 0.000000
v -0.063546 -0.143991 -0.038958
vn -0.286550 -0.082402 -0.954515
v -0.062879 0.155869 -1.232610
vn 0.000000 0.000000 0.000000
v -0.062690 0.144370 -0.038941
vn 0.000000 0.000000 0.000000
v -0.062088 0.194313 -0.038657
vn 0.009564 0.999784 0.018449
v -0.062034 -0.144620 -1.131185
vn 0.000000 0.000000 0.000000
v -0.061997 0.146038 -1.131026
vn -0.152909 -0.573664 -0.804691
v -0.059943 -0.288166 -1.211899
vn 0.000000 0.000000 0.000000
v -0.056602 0.144810 -0.918882
vn 0.454250 0.039964 -0.795153
v -0.049076 0.133126 -0.393113
vn 0.000000 0.000000 0.000000
v -0.050852 0.183659 -1.207535
vn 0.000000 0.000000 0.000000
v -0.050552 -0.142676 -0.075615
vn 0.768693 0.067628 -1.345577
v -0.047797 -0.135233 -0.405870
vn 0.000000 0.000000 0.000000
v -0.044565 0.189676 -0.073925
vn 0.000000 0.000000 0.000000
v -0.044513 -0.136462 -0.401486
vn 0.000000 0.000000 0.000000
v -0.044940 0.224592 -0.019238
vn -0.140701 -0.621777 -0.770452
v -0.044446 -0.182476 -1.210278
vn 0.000000 0.000000 0.000000
v -0.042765 0.133840 -0.392859
vn 0.000000 0.000000 0.000000
v -0.044702 -0.195222 -0.003062
vn -0.569413 1.460929 0.634432
v -0.045251 0.401904 -0.254448
vn 0.000000 0.000000 0.000000
v -0.043542 0.195485 -0.003038
vn 0.000000 0.000000 0.000000
v -0.041709 -0.141226 0.098097
vn 0.000000 0.000000 0.000000
v -0.043120 -0.141876 0.101442
vn 0.000000 0.000000 0.000000
v -0.042276 0.142117 0.101459
vn 0.000000 0.000000 0.000000
v -0.040870 0.141460 0.098114
vn 0.000000 0.000000 0.000000
v -0.040039 -0.225108 -0.022281
vn 0.000000 0.000000 0.000000
v -0.038020 0.132264 -0.392631
vn 0.000000 0.000000 0.000000
v -0.039938 -0.230373 -0.002656
vn 0.000000 0.000000 0.000000
v -0.040282 -0.196322 -0.025800
vn 0.000000 0.000000 0.000000
v -0.039359 0.196623 0.022171
vn 0.000000 0.000000 0.000000
v -0.038620 0.230907 -0.002632
vn 0.000000 0.000000 0.000000
v -0.038585 -0.222668 -0.000247
vn 0.000000 0.000000 0.000000
v -0.037262 0.222894 -0.000219
vn 0.000000 0.000000 0.000000
v -0.036426 -0.229626 0.008783
vn 0.000000 0.000000 0.000000
v -0.035633 0.144395 -1.197444
vn 1.174064 -4.111591 1.855423
v -0.035570 -0.378683 -0.643133
vn 0.000000 0.000000 0.000000
v -0.035063 0.229838 0.008810
vn 0.000000 0.000000 0.000000
v -0.031355 -0.144202 0.074123
vn 0.000000 0.000000 0.000000
v -0.030025 -0.193634 0.070210
vn 0.000000 0.000000 0.000000
v -0.030099 -0.143841 0.070745
vn 0.000000 0.000000 0.000000
v -0.029245 0.144009 0.070762
vn 0.000000 0.000000 0.000000
v -0.028873 0.193800 0.070233
vn 0.000000 0.000000 0.000000
v -0.023751 0.189884 0.079652
vn 0.000000 0.000000 0.000000
v -0.021728 0.144792 -1.215804
vn 0.000000 0.000000 0.000000
v -0.016798 -0.195415 0.039051
vn 0.000000 0.000000 0.000000
v -0.015621 -0.227639 0.035893
vn 0.000000 0.000000 0.000000
v -0.015639 0.195507 0.039075
vn 0.000000 0.000000 0.000000
v -0.015130 -0.230909 0.034868
vn 0.000000 0.000000 0.000000
v -0.014268 0.227725 0.035923
vn 0.000000 0.000000 0.000000
v -0.013735 0.230598 0.034837
vn -1.203442 -1.319274 0.632393
v -0.015336 -0.161119 -0.363007
vn 0.000000 0.000000 0.000000
v -0.006298 -0.224444 0.045788
vn 0.000000 0.000000 0.000000
v -0.003355 0.196463 -0.047290
vn -0.029299 2.810763 -0.005476
v -0.002228 -0.142959 -0.899219
vn 0.000000 0.000000 0.000000
v -0.000350 -0.230564 -0.037839
vn 0.000000 0.000000 0.000000
v -0.000214 -0.195309 -0.042576
vn 0.035134 -1.883976 0.923827
v -0.000001 -0.501361 -0.901622
vn 0.000000 0.000000 0.000000
v 0.000025 -0.194000 -0.077858
vn 0.000000 0.000000 0.000000
v 0.000176 -0.143341 -0.078013
vn 0.000000 0.000000 0.000000
v 0.000390 -0.141770 -0.109519
vn 0.000000 0.000000 0.000000
v 0.000424 -0.145455 -0.115662
vn 0.000000 0.000000 0.000000
v 0.000946 0.195313 -0.042552
vn 0.000000 0.000000 0.000000
v 0.001018 0.230432 -0.037789
vn 0.000000 0.000000 0.000000
v 0.001027 0.143348 -0.077996
vn 0.000000 0.000000 0.000000
v 0.001177 0.194006 -0.077835
vn 0.000000 0.000000 0.000000
v 0.001304 0.147285 -0.117091
vn 0.000000 0.000000 0.000000
v 0.001231 0.141779 -0.109501
vn -0.032001 -1.644964 0.068215
v 0.008972 0.156507 -0.372651
vn -0.065589 0.997840 0.003548
v 0.009752 0.153628 -0.909317
vn 0.000000 0.000000 0.000000
v 0.014696 -0.196259 0.048423
vn 0.000000 0.000000 0.000000
v 0.018516 0.198032 -0.371032
vn 0.000000 0.000000 0.000000
v 0.018400 0.196627 -0.366998
vn 0.039470 -1.653172 -0.072428
v 0.018753 -0.197873 -0.372352
vn -0.035964 1.665621 0.061279
v 0.018925 -0.156400 -0.375601
vn -0.005269 -0.997859 0.065196
v 0.018729 0.152622 -1.231763
vn -0.729724 -0.799960 0.383460
v 0.019646 -0.192103 -0.361074
vn 0.000000 0.000000 0.000000
v 0.019855 0.152148 -0.363414
vn 1.074170 -5.985517 1.160442
v 0.021223 -0.350251 -0.594268
vn 0.000000 0.000000 0.000000
v 0.021614 0.224529 0.041412
vn -0.007974 -0.997867 0.064794
v 0.022266 0.151003 -1.256081
vn 0.000000 0.000000 0.000000
v 0.026524 -0.230528 0.028135
vn 0.000000 0.000000 0.000000
v 0.027908 0.230489 0.028178
vn 1.952902 -4.515361 1.516121
v 0.029111 -0.478001 -0.780806
vn 0.000000 0.000000 0.000000
v 0.029977 -0.195344 0.031531
vn 0.000000 0.000000 0.000000
v 0.030953 -0.196403 -0.029538
vn 0.000000 0.000000 0.000000
v 0.031136 0.195159 0.031554
vn 0.000000 0.000000 0.000000
v 0.030989 -0.189334 -0.081211
vn -0.000730 0.999828 0.018520
v 0.032197 -0.143202 -1.221575
vn 0.000000 0.000000 0.000000
v 0.033181 -0.231081 -0.014489
vn 1.024599 -3.103565 -0.857882
v 0.033518 -0.460599 -0.956707
vn 0.000000 0.000000 0.000000
v 0.034553 0.230881 -0.014461
vn 0.000000 0.000000 0.000000
v 0.035703 -0.190230 0.076781
vn 0.000000 0.000000 0.000000
v 0.036445 0.224584 -0.022794
vn 0.000000 0.000000 0.000000
v 0.037412 -0.195586 -0.016335
vn -0.006935 0.999751 -0.021215
v 0.037680 -0.180990 -1.240171
vn -0.006773 -0.999762 -0.020723
v 0.037680 0.176637 -1.240163
vn 0.000000 0.000000 0.000000
v 0.038618 0.196376 0.030952
vn 0.000000 0.000000 0.000000
v 0.038573 0.195362 -0.016311
vn 0.000000 0.000000 0.000000
v 0.039044 0.143604 0.075898
vn 0.104449 -1.922317 -0.771780
v 0.039790 -0.500454 -0.206334
vn 0.000000 0.000000 0.000000
v 0.041365 -0.224183 -0.021398
vn 0.000000 0.000000 0.000000
v 0.044363 -0.134740 0.213818
vn 0.000000 0.000000 0.000000
v 0.046004 0.143980 -0.901256
vn 0.000000 0.000000 0.000000
v 0.045162 0.134449 0.213835
vn 0.019050 1.325323 0.020904
v 0.048823 -0.143989 -0.914302
vn 0.000000 0.000000 0.000000
v 0.048852 0.145368 -0.914284
vn 3.395709 -2.329726 2.234213
v 0.049678 -0.422723 -0.754424
vn 1.419838 -3.604445 1.241211
v 0.051243 -0.346301 -0.643969
vn 0.000000 0.000000 0.000000
v 0.054818 -0.194013 0.056683
vn 0.000000 0.000000 0.000000
v 0.055002 -0.143190 0.056719
vn 0.000000 0.000000 0.000000
v 0.055744 0.143334 -0.063111
vn 0.000000 0.000000 0.000000
v 0.055852 0.142855 0.056737
vn 0.000000 0.000000 0.000000
v 0.055969 0.193677 0.056707
vn -0.005968 0.999865 0.015331
v 0.064426 -0.144495 -1.139153
vn 0.000000 0.000000 0.000000
v 0.064515 0.146037 -1.140166
vn 0.000000 0.000000 0.000000
v 0.068187 -0.193907 -0.030135
vn 0.000000 0.000000 0.000000
v 0.068790 -0.143983 -0.030331
vn 0.000000 0.000000 0.000000
v 0.069644 0.143575 -0.030314
vn 0.066251 -0.245218 -0.967202
v 0.069636 -0.141766 -1.252305
vn 0.000000 0.000000 0.000000
v 0.069337 0.193502 -0.030112
vn 0.055686 0.998245 -0.020164
v 0.071223 0.145949 -1.119713
vn 0.000000 0.000000 0.000000
v 0.077186 -0.141729 0.079178
vn 0.000000 0.000000 0.000000
v 0.079597 -0.141976 0.081639
vn 0.000000 0.000000 0.000000
v 0.080439 0.141491 0.081656
vn 0.000000 0.000000 0.000000
v 0.078026 0.141259 0.079195
vn 0.000000 0.000000 0.000000
v 0.079381 -0.143597 0.024221
vn 0.000000 0.000000 0.000000
v 0.079252 0.190060 0.000661
vn 0.330631 2.132547 -0.062120
v 0.082255 0.357567 -0.922026
vn 0.074250 0.989760 -0.121908
v 0.091704 -0.159911 -1.228178
vn 0.000000 0.000000 0.000000
v 0.095703 -0.141350 -0.042405
vn 0.000000 0.000000 0.000000
v 0.100179 -0.143734 -0.044383
vn 0.000000 0.000000 0.000000
v 0.094896 -0.135424 -0.331956
vn 0.000000 0.000000 0.000000
v 0.101031 0.143143 -0.044365
vn 0.000000 0.000000 0.000000
v 0.096541 0.140785 -0.042388
vn 0.000000 0.000000 0.000000
v 0.095829 0.135082 -0.332390
vn 0.000000 0.000000 0.000000
v 0.094881 -0.132625 0.206121
vn 0.000000 0.000000 0.000000
v 0.099869 0.391441 -0.207234
vn 0.017794 1.237937 0.019525
v 0.101995 -0.144143 -0.952995
vn 0.000000 0.000000 0.000000
v 0.102026 0.145517 -0.952977
vn -0.086167 0.993213 0.078124
v 0.101832 -0.163183 -1.248114
vn 0.000000 0.000000 0.000000
v 0.103920 0.146581 -0.870627
vn 0.000000 0.000000 0.000000
v 0.119743 0.144708 -0.777397
vn 0.947930 0.325275 -0.524519
v 0.125650 -0.187281 -0.789106
vn 1.674337 0.536379 -0.933089
v 0.124621 -0.143385 -0.763744
vn 0.055686 0.998245 -0.020164
v 0.126124 0.145788 -0.976066
vn -0.009629 0.999953 0.001182
v 0.126328 -0.144738 -1.040636
vn 0.000000 0.000000 0.000000
v 0.126514 0.146304 -1.041898
vn 0.000000 0.000000 0.000000
v 0.116460 0.127228 0.206227
vn 0.000000 0.000000 0.000000
v 0.132550 0.144556 -1.179138
vn -0.053401 2.998946 0.071180
v 0.130325 -0.140767 -0.735139
vn 0.008303 0.577618 0.009111
v 0.136104 -0.146395 -0.841300
vn 0.000000 0.000000 0.000000
v 0.136135 0.147765 -0.841274
vn 0.000000 0.000000 0.000000
v 0.136306 -0.145349 -0.877836
vn 0.000000 0.000000 0.000000
v 0.136557 0.145460 -0.822947
vn 0.017622 -1.769752 0.022888
v 0.139413 -0.183165 -0.843483
vn 0.000000 0.000000 0.000000
v 0.140189 0.185487 -0.847920
vn 0.072291 -3.705729 -0.050170
v 0.137942 -0.180093 -0.713226
vn 0.000000 0.000000 0.000000
v 0.138934 0.182702 -0.718250
vn 0.000000 0.000000 0.000000
v 0.140781 -0.143382 -1.145901
vn 0.000000 0.000000 0.000000
v 0.143972 0.147335 -0.732965
vn 0.000000 0.000000 0.000000
v 0.144785 0.187886 -0.816292
vn -0.040560 -2.072988 0.085872
v 0.138922 0.140524 -0.697110
vn 0.185990 0.901327 -0.391175
v 0.156572 0.293294 -1.187572
vn 0.663497 -1.698568 0.240002
v 0.159659 -0.294105 -0.534620
vn -0.009786 0.999903 0.009871
v 0.165754 -0.143629 -1.139345
vn 2.500881 -5.300081 -1.860206
v 0.168643 -0.330700 -0.424753
vn 0.671940 -0.221690 -0.706647
v 0.173816 -0.286021 -1.194140
vn 0.000000 0.000000 0.000000
v 0.176545 -0.143548 -0.124158
vn 0.430727 -0.814150 -0.389402
v 0.177630 -0.183655 -1.127902
vn 0.000000 0.000000 0.000000
v 0.178990 0.144185 -1.089654
vn 0.000000 0.000000 0.000000
v 0.180220 0.184697 -1.124684
vn 0.581197 -1.363224 0.074475
v 0.184979 -0.286840 -0.599233
vn 0.000000 0.000000 0.000000
v 0.188630 -0.342240 -0.094870
vn 0.000000 0.000000 0.000000
v 0.185093 -0.135639 0.110386
vn 0.000000 0.000000 0.000000
v 0.185895 0.134525 0.110403
vn 0.671940 -0.221690 -0.706647
v 0.196676 -0.180375 -1.205546
vn 0.000000 0.000000 0.000000
v 0.202696 0.185887 -0.986780
vn 0.000000 0.000000 0.000000
v 0.196190 -0.135708 -0.233669
vn -0.036349 -0.999086 0.022476
v 0.204223 0.151778 -1.196904
vn 0.000000 0.000000 0.000000
v 0.196992 0.134592 -0.233652
vn 0.000000 0.000000 0.000000
v 0.205046 0.144334 -1.114607
vn 1.310049 -1.362657 0.267399
v 0.207749 -0.310360 -0.801701
vn -0.005074 0.999978 0.004336
v 0.208723 -0.143885 -1.004873
vn 0.000000 0.000000 0.000000
v 0.208874 0.145325 -1.005433
vn -0.001741 -0.999998 0.000747
v 0.208815 -0.183557 -1.003920
vn 0.812846 -0.428860 -0.394158
v 0.211287 -0.142628 -1.127213
vn 1.210113 -1.326260 0.045898
v 0.216736 -0.310233 -0.879799
vn 0.000000 0.000000 0.000000
v 0.217694 -0.402010 -0.095127
vn 0.000000 0.000000 0.000000
v 0.215258 0.132166 -0.080551
vn 0.000000 0.000000 0.000000
v 0.218474 -0.141165 -0.073157
vn -0.033472 -0.999217 0.021118
v 0.227456 0.150544 -1.214183
vn 0.000000 0.000000 0.000000
v 0.228232 -0.138093 -0.086572
vn 0.000000 0.000000 0.000000
v 0.221346 0.132283 -0.046658
vn 0.000000 0.000000 0.000000
v 0.229202 0.136978 -0.048314
vn 0.000000 0.000000 0.000000
v 0.217449 -0.129746 -0.044589
vn 0.000000 0.000000 0.000000
v 0.240800 0.331285 -0.079642
vn 0.000000 0.000000 0.000000
v 0.240454 -0.134289 -0.048891
vn -0.086167 0.993213 0.078124
v 0.258303 -0.157451 -1.148407
vn 0.333924 0.029378 -0.584525
v 0.248882 -0.135153 -0.236381
vn 0.000000 0.000000 0.000000
v 0.255098 -0.137039 -0.055776
vn 0.000000 0.000000 0.000000
v 0.255907 0.135531 -0.055759
vn 0.000000 0.000000 0.000000
v 0.252786 -0.136155 -0.230478
vn 0.000000 0.000000 0.000000
v 0.258524 -0.139245 -0.235710
vn 1.556572 -0.148816 -1.331321
v 0.266674 0.130779 -0.715387
vn 0.000000 0.000000 0.000000
v 0.258338 0.137201 -0.234777
vn -0.024850 -0.999546 0.017046
v 0.265992 0.150977 -1.132614
vn 0.000000 0.000000 0.000000
v 0.259480 0.135668 -0.203519
vn 0.000000 0.000000 0.000000
v 0.264483 -0.138980 -0.051950
vn -0.023541 0.999540 0.019139
v 0.279476 -0.189103 -0.435201
vn -0.023153 -0.999556 0.018755
v 0.279533 0.184595 -0.435291
vn 0.694702 0.008091 -0.286940
v 0.273634 -0.146462 -0.706354
vn 1.825124 1.594881 0.060968
v 0.267213 0.269033 -0.455746
vn 0.000000 0.000000 0.000000
v 0.263693 0.136237 -0.051591
vn -0.007742 -0.999901 0.011756
v 0.262411 0.172372 -1.107855
vn -0.007901 0.999897 0.011952
v 0.262420 -0.176624 -1.107894
vn 0.818964 -1.489237 -0.930477
v 0.267649 -0.414573 -0.203373
vn 0.000000 0.000000 0.000000
v 0.264653 0.135145 -0.051759
vn 0.521589 0.851193 -0.058435
v 0.268286 0.259892 -1.024712
vn 0.000000 0.000000 0.000000
v 0.277501 -0.143668 -0.067099
vn -0.052468 1.471050 0.047706
v 0.273566 -0.143427 -0.495576
vn -0.044596 -1.417376 0.051959
v 0.273015 0.143742 -0.494236
vn 0.059271 -1.462458 -0.055557
v 0.273500 -0.182878 -0.495295
vn 0.000000 0.000000 0.000000
v 0.273593 0.183521 -0.495024
vn 6.261012 0.274638 0.161834
v 0.277544 0.065340 -0.538329
vn 1.361810 0.061604 -0.823992
v 0.282181 -0.188032 -0.506683
vn 0.000000 0.000000 0.000000
v 0.282888 0.189112 -0.507550
vn 1.329985 0.019542 -0.811791
v 0.282243 -0.146684 -0.505586
vn 0.000000 0.000000 0.000000
v 0.282537 0.147469 -0.505803
vn 0.000000 0.000000 0.000000
v 0.279846 0.143179 -0.062876
vn 0.000000 0.000000 0.000000
v 0.275558 0.105447 -0.066718
vn 0.796429 -0.579980 -0.171243
v 0.284648 -0.286843 -0.985925
vn -0.086167 0.993213 0.078124
v 0.285088 -0.154617 -1.154894
vn 2.117640 0.051985 0.178843
v 0.286316 0.148706 -0.666429
vn 2.133639 0.008904 -0.947033
v 0.291442 -0.090730 -0.661668
vn 0.820378 -0.091726 -0.756479
v 0.294259 0.153014 -0.688168
vn 3.119542 -2.042274 0.269804
v 0.292707 -0.255023 -0.585954
vn 2.406943 0.082112 0.203666
v 0.296410 -0.144380 -0.676736
vn -0.024726 -0.999140 -0.033272
v 0.293718 0.150992 -0.973834
vn -0.022480 -0.999620 0.015927
v 0.296706 0.150057 -1.147004
vn -0.066315 0.997117 -0.036877
v 0.304709 -0.143990 -0.977740
vn 3.175233 -1.520318 -0.449082
v 0.301009 -0.213183 -0.406589
vn 0.671940 -0.221690 -0.706647
v 0.305710 -0.138536 -1.114993
vn 0.006531 -0.999368 -0.034929
v 0.327032 0.150025 -0.969552
vn -0.139826 0.989712 -0.030314
v 0.333950 -0.141426 -0.958918
vn 0.000000 0.000000 0.000000
v 0.422071 0.257422 -0.117958
vn 0.000000 0.000000 0.000000
v 0.499861 -0.093424 -0.083871
# 341 vertices, 0 vertices normals

f 25//25 81//81 65//65
f 25//25 43//43 149//149
f 149//149 43//43 245//245
f 250//250 252//252 44//44
f 239//239 322//322 320//320
f 29//29 171//171 146//146
f 257//257 316//316 163//163
f 169//169 315//315 245//245
f 252//252 317//317 168//168
f 319//319 328//328 307//307
f 223//223 2//2 115//115
f 14//14 2//2 223//223
f 5//5 2//2 14//14
f 38//38 35//35 73//73
f 307//307 336//336 319//319
f 75//75 78//78 77//77
f 75//75 86//86 78//78
f 1//1 75//75 7//7
f 75//75 35//35 7//7
f 75//75 1//1 22//22
f 332//332 319//319 331//331
f 319//319 336//336 331//331
f 311//311 261//261 336//336
f 336//336 261//261 331//331
f 173//173 22//22 3//3
f 7//7 3//3 1//1
f 1//1 3//3 22//22
f 6//6 34//34 53//53
f 37//37 56//56 53//53
f 16//16 4//4 8//8
f 37//37 17//17 56//56
f 18//18 15//15 40//40
f 185//185 282//282 178//178
f 277//277 178//178 282//282
f 131//131 18//18 178//178
f 88//88 185//185 40//40
f 185//185 178//178 18//18
f 259//259 32//32 203//203
f 202//202 203//203 178//178
f 18//18 76//76 15//15
f 32//32 259//259 31//31
f 233//233 200//200 246//246
f 49//49 257//257 163//163
f 81//81 25//25 149//149
f 26//26 250//250 44//44
f 238//238 239//239 320//320
f 43//43 169//169 245//245
f 44//44 252//252 168//168
f 294//294 108//108 105//105
f 223//223 115//115 307//307
f 9//9 5//5 14//14
f 115//115 2//2 73//73
f 73//73 2//2 5//5
f 73//73 35//35 75//75
f 73//73 75//75 77//77
f 73//73 77//77 115//115
f 73//73 5//5 10//10
f 73//73 10//10 38//38
f 86//86 75//75 22//22
f 332//332 328//328 319//319
f 22//22 261//261 195//195
f 261//261 22//22 173//173
f 331//331 173//173 152//152
f 152//152 173//173 3//3
f 331//331 261//261 173//173
f 195//195 261//261 311//311
f 22//22 195//195 86//86
f 13//13 6//6 53//53
f 330//330 329//329 299//299
f 34//34 37//37 53//53
f 299//299 329//329 306//306
f 17//17 16//16 8//8
f 37//37 16//16 17//17
f 203//203 131//131 178//178
f 40//40 185//185 18//18
f 131//131 203//203 32//32
f 203//203 267//267 259//259
f 18//18 131//131 76//76
f 32//32 31//31 131//131
f 178//178 277//277 202//202
# 80 faces, 0 coords texture

# End of File
